<svg width="32" height="32" viewBox="0 0 32 32" fill="none" xmlns="http://www.w3.org/2000/svg">
<path d="M2.66699 22.6666V9.33329C2.66699 7.86053 3.8609 6.66663 5.33366 6.66663H13.3337H18.667H26.667C28.1398 6.66663 29.3337 7.86053 29.3337 9.33329V22.6666C29.3337 24.1394 28.1398 25.3333 26.667 25.3333H18.667H13.3337H5.33366C3.8609 25.3333 2.66699 24.1394 2.66699 22.6666Z" stroke="white" stroke-width="1.1" stroke-linecap="round" stroke-linejoin="round"/>
<path d="M16 20C13.7908 20 12 18.2092 12 16C12 13.7908 13.7908 12 16 12C18.2092 12 20 13.7908 20 16C20 18.2092 18.2092 20 16 20Z" stroke="white" stroke-width="1.1" stroke-linecap="round" stroke-linejoin="round"/>
<path d="M24.667 16.0133L24.6803 15.9985" stroke="white" stroke-width="1.1" stroke-linecap="round" stroke-linejoin="round"/>
<path d="M7.33301 16.0133L7.34634 15.9985" stroke="white" stroke-width="1.1" stroke-linecap="round" stroke-linejoin="round"/>
</svg>
