<svg width="32" height="32" viewBox="0 0 32 32" fill="none" xmlns="http://www.w3.org/2000/svg">
<path d="M18.6667 16L14 18.6666V13.3333L18.6667 16Z" fill="white" stroke="white" stroke-width="1.1" stroke-linecap="round" stroke-linejoin="round"/>
<path d="M2.66699 16.9433V15.0565C2.66699 11.1961 2.66699 9.26586 3.87431 8.0239C5.08165 6.78194 6.98241 6.72818 10.7839 6.62066C12.5853 6.56971 14.4254 6.5332 16.0003 6.5332C17.5753 6.5332 19.4154 6.56971 21.2167 6.62066C25.0182 6.72818 26.919 6.78194 28.1263 8.0239C29.3337 9.26586 29.3337 11.1961 29.3337 15.0565V16.9433C29.3337 20.8037 29.3337 22.734 28.1263 23.9759C26.919 25.2179 25.0183 25.2716 21.2169 25.3792C19.4154 25.4301 17.5753 25.4667 16.0003 25.4667C14.4254 25.4667 12.5852 25.4301 10.7838 25.3792C6.98234 25.2716 5.08162 25.2179 3.8743 23.9759C2.66699 22.734 2.66699 20.8037 2.66699 16.9433Z" stroke="white" stroke-width="1.1"/>
</svg>
